# xmcd
#
# Track frame offsets:
# 150
# 20962
# 42738
# 94290
# 127465
# 152285
# 214196
#
# Disc length: 3706 seconds
#
#
# Revision: 4
# Processed by: cddbd v1.5.2PL0 Copyright (c) Steve Scherf et al.
# Submitted via: FreeRIP 2.951 
#
DISCID=690e7807
DTITLE=The Doors - Isle Of Wight Festival
DYEAR=1997
DGENRE=Blues
TTITLE0=Back Door Man
TTITLE1=Break On Through
TTITLE2=When the Music's Over
TTITLE3=Ship Of Fools
TTITLE4=Roadhouse Blues
TTITLE5=Light Ny Fire
TTITLE6=The End
EXTD=Isle Of Wight Festival 12.05. and 31.08.1970
EXTT0=
EXTT1=
EXTT2=
EXTT3=
EXTT4=
EXTT5=
EXTT6=
PLAYORDER=
